<svg width="200" height="200" viewBox="0 0 95 96" fill="none" xmlns="http://www.w3.org/2000/svg">
<path d="M72.5 53.5L56 61L72.5 69" stroke="#61A55F" stroke-width="5"/>
<path d="M26 85L38.5 76.5C45.7 74.9 46.1667 80.8333 45.5 84C41.1 91.6 34 93.8333 31 94C22.6 94.4 16.1667 87.8333 14 84.5C18.4 87.3 23.8333 86 26 85Z" stroke="#61A55F" stroke-width="5"/>
<path d="M69.7192 84.7688L57.2192 76.2688C50.0192 74.6688 49.5526 80.6021 50.2192 83.7688C54.6192 91.3688 61.7192 93.6021 64.7192 93.7688C73.1192 94.1688 79.5526 87.6021 81.7192 84.2688C77.3192 87.0688 71.8859 85.7688 69.7192 84.7688Z" stroke="#61A55F" stroke-width="5"/>
<path d="M23 20.5H72" stroke="#61A55F" stroke-width="5"/>
<path d="M26 2H69" stroke="#61A55F" stroke-width="5"/>
<path d="M22.5 31V6C22.5 4.66667 23.2 2 26 2" stroke="#61A55F" stroke-width="5"/>
<path d="M72.5 31V6C72.5 4.66667 71.8 2 69 2" stroke="#61A55F" stroke-width="5"/>
<rect x="1.5" y="32.5" width="92" height="10" rx="5" stroke="#61A55F" stroke-width="5"/>
<circle cx="31.5" cy="61.5" r="11" stroke="#61A55F" stroke-width="5"/>
<path d="M19 61.5H10C8.83333 61.5 6.5 62.4 6.5 66V93" stroke="#61A55F" stroke-width="5"/>
</svg>
